<?xml version="1.0" encoding="UTF-8" standalone="no"?>
<!DOCTYPE svg PUBLIC "-//W3C//DTD SVG 1.1//EN" "http://www.w3.org/Graphics/SVG/1.1/DTD/svg11.dtd">
<svg width="100%" height="100%" viewBox="0 0 1024 1024" version="1.1" xmlns="http://www.w3.org/2000/svg" xmlns:xlink="http://www.w3.org/1999/xlink" xml:space="preserve" xmlns:serif="http://www.serif.com/" style="fill-rule:evenodd;clip-rule:evenodd;stroke-linejoin:round;stroke-miterlimit:2;">
    <g id="Layer1">
        <path d="M128,657.998L128,365.002C128.001,353.528 128.009,342.057 128.082,330.583L128.082,330.51C128.146,319.428 128.269,308.348 128.57,297.269L128.57,297.258C129.105,277.532 129.983,257.61 133.489,238.103L133.491,238.096C135.956,224.379 139.767,211.543 146.109,199.081C151.93,187.648 159.538,177.187 168.61,168.115L168.615,168.11C177.687,159.038 188.148,151.43 199.581,145.609C212.043,139.267 224.879,135.456 238.596,132.991L238.603,132.989C258.111,129.482 278.034,128.604 297.761,128.069C308.843,127.769 319.926,127.646 331.01,127.582L331.083,127.582C342.561,127.509 354.036,127.501 365.513,127.5L658.487,127.5C669.964,127.501 681.44,127.509 692.917,127.582L692.99,127.582C704.075,127.646 715.158,127.769 726.24,128.069C745.968,128.604 765.89,129.482 785.399,132.99L785.404,132.99C799.121,135.456 811.957,139.267 824.42,145.61C835.855,151.431 846.315,159.04 855.388,168.113C864.461,177.185 872.071,187.647 877.891,199.081C884.235,211.544 888.045,224.382 890.511,238.1C894.017,257.608 894.896,277.533 895.431,297.261C895.731,308.343 895.854,319.426 895.918,330.51L895.919,330.583C895.991,342.057 895.999,353.528 896,365.002L896,657.998C895.999,669.472 895.991,680.943 895.919,692.417L895.918,692.49C895.854,703.575 895.731,714.658 895.431,725.74C894.896,745.468 894.017,765.392 890.511,784.901C888.045,798.619 884.235,811.455 877.891,823.918L877.889,823.922C872.07,835.356 864.46,845.816 855.388,854.888C846.316,863.96 835.856,871.569 824.422,877.389L824.418,877.391C811.955,883.735 799.119,887.545 785.401,890.011C765.892,893.517 745.968,894.396 726.24,894.931C715.158,895.231 704.075,895.354 692.99,895.418L692.917,895.418C681.443,895.491 669.972,895.499 658.498,895.5L365.502,895.5C354.029,895.499 342.557,895.491 331.083,895.418L331.01,895.418C319.926,895.354 308.843,895.231 297.761,894.931C278.033,894.396 258.109,893.517 238.6,890.011C224.882,887.545 212.044,883.735 199.581,877.391C188.147,871.571 177.685,863.961 168.613,854.888C159.54,845.815 151.931,835.355 146.11,823.92C139.767,811.457 135.956,798.621 133.491,784.904L133.49,784.899C129.983,765.391 129.105,745.47 128.57,725.743L128.57,725.731C128.269,714.652 128.146,703.572 128.082,692.49L128.082,692.417C128.009,680.943 128.001,669.472 128,657.998Z" style="fill:rgb(246,240,236);"/>
    </g>
</svg>
